<svg width="735" height="593" viewBox="0 0 735 593" fill="none" xmlns="http://www.w3.org/2000/svg">
<path d="M619.394 358.399C619.394 358.399 619.779 359.293 619.868 360.245C620.463 361.594 620.969 361.992 621.476 362.39C659.295 437.645 697.116 512.899 734.887 588.177C735.11 588.623 734.642 589.414 734.257 591.09C730.674 591.259 726.793 591.591 722.912 591.602C668.932 591.746 614.95 591.683 560.973 592.133C553.028 592.2 549.163 589.19 545.791 582.39C525.529 541.526 504.688 500.949 484.468 460.065C480.482 452.007 475.185 449.288 466.436 449.323C400.803 449.588 335.167 449.658 269.536 449.23C260.003 449.168 255.341 452.617 251.257 460.861C231.018 501.719 210.063 542.222 189.641 582.991C186.366 589.529 182.086 592.131 174.804 592.088C119.492 591.761 64.1789 591.734 8.86597 591.57C6.31806 591.562 3.7713 591.138 0 590.798C1.41565 587.249 2.27417 584.504 3.55524 581.973C40.8455 508.286 78.1315 434.596 115.517 360.958C150.938 291.19 186.528 221.509 221.933 151.733C245.891 104.517 269.76 57.2539 293.398 9.87647C296.77 3.11744 300.8 -0.0497994 308.705 0.0217636C348.02 0.377752 387.343 0.471776 426.656 0.00211032C435.132 -0.0991467 439.466 3.44516 442.891 10.2706C458.872 42.1188 474.996 73.8956 491.058 105.703C501.559 126.497 512.043 147.3 522.715 169.314C523.425 170.983 523.955 171.437 524.484 171.891C526.974 176.757 529.463 181.623 532.154 187.672C533.23 190.107 534.105 191.359 534.98 192.61C535.339 193.304 535.697 193.999 536.228 195.799C537.362 198.128 538.323 199.349 539.284 200.571C539.626 201.237 539.967 201.903 540.463 203.721C542.403 207.965 544.188 211.058 545.973 214.15C545.973 214.15 546.007 214.24 545.929 214.877C546.597 216.388 547.343 217.263 548.088 218.138C548.088 218.138 548.46 218.869 548.535 219.751C549.069 221.152 549.527 221.671 549.985 222.19C549.985 222.19 550.27 222.971 550.434 223.866C551.094 225.224 551.591 225.687 552.087 226.15C552.087 226.15 552.43 226.887 552.556 227.777C553.187 229.141 553.691 229.614 554.195 230.088C554.195 230.088 554.557 230.823 554.625 231.711C555.165 233.099 555.637 233.598 556.109 234.097C556.109 234.097 556.239 234.116 556.071 234.758C556.636 236.292 557.369 237.185 558.101 238.078C558.101 238.078 558.176 238.117 558.058 238.763C558.688 240.298 559.436 241.186 560.184 242.073C560.72 243.056 561.256 244.039 561.953 246.265C564.001 252.334 565.888 257.159 568.413 263.612C559.99 263.612 553.035 263.071 546.202 263.747C537.429 264.615 532.582 261.631 528.461 253.372C502.582 201.498 476.042 149.954 449.711 98.306C447.482 93.9339 445.187 89.5953 441.853 83.1837C436.639 93.6429 432.787 102.35 428.056 110.549C424.322 117.02 424.469 122.443 427.892 129.161C452.698 177.842 477.198 226.679 501.552 275.588C504.66 281.831 508.681 283.994 515.587 283.933C537.57 283.74 559.558 284.236 581.544 284.466C581.544 284.466 581.698 284.748 581.619 285.178C581.654 286.201 581.998 286.411 582.575 286.24C583.453 287.902 584.331 289.564 585.436 292.434C586.764 295.301 587.866 296.961 588.968 298.621C589.353 299.297 589.738 299.972 590.257 301.809C591.593 304.716 592.796 306.461 593.999 308.206C593.999 308.206 594.396 308.901 594.434 309.95C596.746 314.863 599.019 318.727 601.293 322.591C601.65 323.244 602.006 323.896 602.462 325.622C603.493 327.98 604.424 329.264 605.356 330.549C605.677 331.221 605.998 331.893 606.464 333.732C608.408 337.995 610.207 341.089 612.006 344.184C612.006 344.184 612.271 344.963 612.4 345.968C613.682 348.714 614.834 350.454 615.987 352.195C616.539 353.19 617.09 354.184 617.788 356.18C618.421 357.588 618.907 357.993 619.394 358.399ZM325.007 240.059C325.007 240.059 324.941 240.204 326.038 239.456C327.589 236.266 329.139 233.076 331.679 228.986C333.377 225.298 335.074 221.61 337.736 217.056C338.78 214.687 339.825 212.319 341.813 209.01C343.504 205.333 345.195 201.657 347.892 197.062C351.013 190.729 354.135 184.397 358.031 177.25C358.401 176.199 358.772 175.148 359.93 173.257C360.325 172.182 360.72 171.108 362.036 169.136C363.055 166.783 364.073 164.429 365.942 161.284C366.358 160.208 366.773 159.133 368.001 157.27C368.399 156.221 368.798 155.172 370.142 153.144C378.026 137.838 386.022 122.588 393.76 107.208C400.301 94.2075 406.543 81.0566 413.742 67.1758C414.095 66.0987 414.448 65.0216 415.797 62.9871C417.491 59.764 419.352 56.6163 420.848 53.3035C425.211 43.6397 419.461 34.1894 408.949 34.1261C381.46 33.9607 353.97 34.1278 326.482 33.9125C321.165 33.8709 317.533 35.3856 315.682 40.5354C314.793 43.0107 313.651 45.3954 311.688 48.8686C305.205 62.1845 298.722 75.5003 291.214 89.7293C290.271 91.7349 289.328 93.7405 287.369 96.6622C283.326 104.952 279.283 113.241 274.395 122.435C272.297 126.827 270.199 131.219 267.16 136.594C263.372 144.25 259.583 151.906 254.916 160.55C253.255 164.205 251.593 167.861 249.081 172.322C248.659 173.404 248.236 174.487 246.904 176.532C245.191 180.172 243.478 183.812 240.853 188.558C240.338 190.366 239.823 192.174 238.609 194.168C238.609 194.168 238.421 194.867 237.445 195.614C233.101 204.328 228.757 213.043 223.535 222.448C223.085 223.841 222.635 225.235 221.084 227.616C209.353 250.936 197.622 274.256 184.983 298.489C183.967 300.846 182.951 303.202 180.988 306.534C171.388 325.584 161.788 344.634 151.197 364.62C144.101 378.933 137.004 393.245 129.044 408.488C128.384 410.038 127.723 411.588 126.152 414.038C116.989 431.923 107.743 449.767 98.6983 467.711C94.3782 476.282 90.4385 485.045 85.3903 494.709C81.6777 502.37 77.9649 510.032 73.2272 518.596C70.0438 524.806 66.5261 530.872 63.77 537.267C60.9648 543.775 55.8137 549.396 55.3555 557.942C59.2073 557.942 62.4914 557.939 65.7756 557.942C95.3666 557.968 124.963 557.704 154.545 558.214C162.447 558.351 166.318 555.536 169.75 548.657C190.529 507.018 211.852 465.652 232.769 424.081C235.384 418.884 238.176 415.045 246.283 415.792C251.036 415.708 255.789 415.623 262.397 415.836C283.111 415.749 303.825 415.663 326.323 415.847C331.728 415.762 337.134 415.678 344.394 415.889C383.21 416.168 422.02 415.997 462.386 415.866C460.081 410.849 458.682 407.559 457.086 404.368C448.437 387.082 439.792 369.793 431.026 352.566C428.623 347.843 425.811 343.327 422.967 337.352C412.688 316.82 402.352 296.317 392.149 275.747C384.061 259.444 383.421 264.85 392.209 247.683C395.437 241.377 399.039 235.261 403.234 227.677C406.271 233.153 408.47 236.83 410.4 240.644C427.233 273.921 444.157 307.154 460.7 340.576C463.911 347.065 467.809 349.922 475.267 349.741C493.905 349.29 512.567 349.889 531.21 349.547C537.449 349.433 540.783 351.658 543.449 357.2C550.375 371.599 557.845 385.738 565.19 399.934C571.15 411.452 577.242 422.901 583.685 435.791C598.097 464.788 612.509 493.785 627.904 524.759C616.924 524.808 608.068 524.672 599.224 524.953C594.217 525.112 591.32 523.103 589.207 518.595C584.695 508.969 579.885 499.473 574.915 490.073C571.376 483.379 567.13 477.055 563.643 470.335C559.387 462.132 555.595 453.688 551.222 443.92C541.778 425.229 532.398 406.505 522.803 387.892C521.681 385.717 519.48 382.704 517.584 382.554C506.794 381.703 495.946 381.64 483.603 382.969C485.504 387.471 486.688 390.779 488.251 393.897C501.062 419.456 513.919 444.993 526.836 470.5C528.472 473.731 530.537 476.745 532.641 481.283C540.585 496.817 548.528 512.352 556.672 529.301C560.585 536.978 564.627 544.593 568.359 552.358C570.331 556.461 573.18 558.231 577.739 558.093C588.005 557.784 598.28 557.762 610.406 557.882C621.779 557.786 633.151 557.69 646.371 557.946C657.824 557.946 669.277 557.946 682.143 557.946C678.88 549.224 675.633 542.201 670.83 534.292C663.715 520.018 656.699 505.695 649.459 491.485C641.325 475.52 632.989 459.659 624.53 442.323C604.261 402.225 583.933 362.157 563.804 321.989C561.545 317.481 558.623 315.754 553.682 315.801C537.372 315.957 521.056 315.916 504.746 315.701C483.306 315.419 488.388 319.436 477.954 299.23C455.354 255.461 433.156 211.484 410.768 167.605C409.214 164.559 407.452 161.62 405.192 157.565C403.092 161.086 401.812 162.982 400.779 165.003C381.238 203.233 361.721 241.476 342.212 279.722C336.918 290.1 331.514 300.427 326.465 310.923C324.141 315.753 320.894 317.928 315.491 317.585C311.198 317.313 306.859 317.759 300.893 317.574C297.006 317.559 293.118 317.544 288.802 316.705C288.802 316.705 288.189 316.007 288.627 314.595C294.154 303.112 299.681 291.629 306.131 279.178C307.858 275.482 309.584 271.786 312.206 267.091C315.081 261.002 317.956 254.913 321.845 247.815C322.932 245.271 324.019 242.728 325.007 240.059Z" fill="#06D1F5"/>
</svg>
